<svg width="179" height="40" viewBox="0 0 179 40" fill="none" xmlns="http://www.w3.org/2000/svg">
<path d="M22.8403 12.2212L14.9729 14.6133C14.7071 14.7019 14.4236 14.507 14.3881 14.2235L13.5199 6.78135L13.3604 5.34608L12.7934 0.402377C12.7402 -0.093765 12.0315 -0.146922 11.8897 0.331501L10.5253 5.32836L10.1355 6.76363L5.82969 22.6579C5.72337 23.0477 6.14864 23.3844 6.50303 23.1718L23.2124 13.0363C23.6731 12.7705 23.3541 12.0617 22.8403 12.2212Z" fill="#FF2E00"/>
<path d="M6.48528 27.7787L14.3527 25.3866C14.6185 25.298 14.902 25.4929 14.9374 25.7764L15.8057 33.2185L15.9651 34.6538L16.5322 39.5975C16.5853 40.0936 17.2941 40.1468 17.4359 39.6684L18.8002 34.6715L19.1901 33.2363L23.4959 17.342C23.6022 16.9522 23.1769 16.6155 22.8225 16.8281L6.11318 26.9636C5.65247 27.2294 5.97142 27.9382 6.48528 27.7787Z" fill="#FF2E00"/>
<path d="M5.01459 33.2188C3.03002 33.2188 1.43527 31.624 1.43527 29.6395V10.3608C1.43527 8.37621 3.03002 6.78146 5.01459 6.78146H6.02459C6.34353 6.78146 6.62704 6.56883 6.71564 6.24988C6.83968 5.78918 6.50301 5.34619 6.02459 5.34619H5.01459C2.25036 5.34619 0 7.59655 0 10.3608V29.6572C0 32.4214 2.25036 34.6717 5.01459 34.6717H11.5885C12.0137 34.6717 12.3504 34.2996 12.2972 33.8744C12.2618 33.52 11.9429 33.2365 11.5885 33.2365H5.01459V33.2188Z" fill="#FF2E00"/>
<path d="M24.311 5.34619H17.7371C17.3118 5.34619 16.9751 5.7183 17.0283 6.14356C17.0637 6.49795 17.3827 6.78146 17.7371 6.78146H24.311C26.2955 6.78146 27.8903 8.37621 27.8903 10.3608V29.6572C27.8903 31.6417 26.2955 33.2365 24.311 33.2365H23.301C22.982 33.2365 22.6985 33.4491 22.6099 33.7681C22.4859 34.2288 22.8225 34.6717 23.301 34.6717H24.311C27.0752 34.6717 29.3255 32.4214 29.3255 29.6572V10.3608C29.3255 7.57884 27.0752 5.34619 24.311 5.34619Z" fill="#FF2E00"/>
<path d="M37.2993 15.1172C37.2993 10.9886 41.0381 10.5457 43.4125 10.5457C45.3971 10.5457 47.3462 10.9178 48.8878 11.3785V13.3808C47.0981 12.8137 45.0958 12.5479 43.6428 12.5479C41.0735 12.5479 39.5674 12.9732 39.5674 15.1172C39.5674 16.8892 39.8332 17.5448 43.2353 17.5448C49.0473 17.5448 49.5788 19.4762 49.5788 22.2759C49.5788 26.2627 47.2044 26.9892 43.2353 26.9892C41.233 26.9892 39.1421 26.6171 37.7246 26.0501V23.9769C39.3016 24.5971 41.1444 24.9869 43.2353 24.9869C46.2653 24.9869 47.3285 24.6148 47.3285 22.2759C47.3285 19.8483 46.4602 19.5648 43.2353 19.5648C38.7169 19.5648 37.2993 18.3422 37.2993 15.1172Z" fill="#434343"/>
<path d="M50.199 15.2944H52.2721L55.1427 25.0401H55.6211L58.4208 16.0564H60.618L63.4176 25.0401H63.896L66.7311 15.2944H68.822L65.4376 26.7943H62.0532L59.4839 18.3776L56.95 26.7943H53.5657L50.199 15.2944Z" fill="#434343"/>
<path d="M69.7612 21.0178C69.7612 16.0386 72.1002 15.0818 75.6618 15.0818C79.2411 15.0818 80.9953 16.4816 80.9953 19.7065V21.8506H71.9762C72.1533 24.0832 73.1456 25.235 76.0693 25.235C77.54 25.235 79.1702 24.8983 80.5169 24.473V26.1741C79.1879 26.7057 77.4337 26.9892 75.9985 26.9892C72.0116 26.9892 69.7612 25.3767 69.7612 21.0178ZM71.9584 20.2027H78.8336V19.7065C78.8336 17.5979 77.8058 16.8714 75.6618 16.8714C72.9507 16.8537 72.0825 17.7043 71.9584 20.2027Z" fill="#434343"/>
<path d="M82.8026 21.0178C82.8026 16.0386 85.1416 15.0818 88.7032 15.0818C92.2825 15.0818 94.0367 16.4816 94.0367 19.7065V21.8506H85.0175C85.1947 24.0832 86.187 25.235 89.1107 25.235C90.5814 25.235 92.2116 24.8983 93.5583 24.473V26.1741C92.2293 26.7057 90.4751 26.9892 89.0398 26.9892C85.0707 26.9892 82.8026 25.3767 82.8026 21.0178ZM84.9998 20.2027H91.8749V19.7065C91.8749 17.5979 90.8472 16.8714 88.7032 16.8714C85.9921 16.8537 85.1238 17.7043 84.9998 20.2027Z" fill="#434343"/>
<path d="M96.8187 31.4545V15.2944H98.5552L98.7855 16.5879C99.7246 15.5248 101.195 15.0818 102.808 15.0818C105.82 15.0818 108.336 15.9146 108.336 21.0178C108.336 26.1032 105.732 27.0069 102.808 27.0069C101.337 27.0069 99.9373 26.6171 98.9804 25.5717V31.4545H96.8187ZM98.9273 21.0178C98.9273 24.2959 100.256 25.2173 102.56 25.2173C104.775 25.2173 106.174 24.792 106.174 21.0178C106.174 17.2967 104.775 16.8892 102.56 16.8892C100.309 16.8714 98.9273 17.7751 98.9273 21.0178Z" fill="#434343"/>
<path d="M116.948 15.2944H118.738L118.95 16.2867C120.439 15.5779 122.281 15.0818 123.752 15.0818C126.091 15.0818 127.934 16.269 127.934 19.9192V26.7943H125.754V20.1495C125.719 17.5625 124.762 16.9069 123.061 16.9069C121.768 16.9069 120.261 17.4739 119.127 18.0764V26.812H116.948V15.2944Z" fill="#434343"/>
<path d="M131.052 15.1528L130.822 10.7761H132.754L132.523 15.1528H131.052Z" fill="#434343"/>
<path d="M141.879 10.7937H153.219V12.7606H144.094V18.4308H152.794V20.3976H144.094V26.812H141.879V10.7937Z" fill="#434343"/>
<path d="M157.525 10.7937V26.7943H155.346V10.7937H157.525Z" fill="#434343"/>
<path d="M161.211 10.7937H163.514V12.7783H161.211V10.7937ZM161.264 15.2944H163.443V26.7943H161.264V15.2944Z" fill="#434343"/>
<path d="M167.182 31.4545V15.2944H168.919L169.149 16.5879C170.088 15.5248 171.559 15.0818 173.171 15.0818C176.184 15.0818 178.7 15.9146 178.7 21.0178C178.7 26.1032 176.095 27.0069 173.171 27.0069C171.701 27.0069 170.301 26.6171 169.344 25.5717V31.4545H167.182ZM169.291 21.0178C169.291 24.2959 170.62 25.2173 172.923 25.2173C175.138 25.2173 176.538 24.792 176.538 21.0178C176.538 17.2967 175.138 16.8892 172.923 16.8892C170.673 16.8714 169.291 17.7751 169.291 21.0178Z" fill="#434343"/>
</svg>
